HIERARCHY
ROOT Hips
{
	OFFSET 0.000000 0.000000 0.000000
	CHANNELS 6 Xposition Yposition Zposition Zrotation Yrotation Xrotation 
	JOINT LeftUpLeg_virtual
	{
		OFFSET 0.000000 0.000000 0.000000
		CHANNELS 3 Zrotation Yrotation Xrotation
		JOINT LeftUpLeg
		{
			OFFSET 10.205400 -3.823500 0.155100
			CHANNELS 3 Zrotation Yrotation Xrotation
			JOINT LeftLeg
			{
				OFFSET 0.708757 -12.982077 0.567790
				CHANNELS 3 Zrotation Yrotation Xrotation
				JOINT LeftFoot
				{
					OFFSET -0.708756 -10.717838 -2.184338
					CHANNELS 3 Zrotation Yrotation Xrotation
					JOINT LeftToeBase
					{
						OFFSET 0.108149 -7.191104 7.560241
						CHANNELS 3 Zrotation Yrotation Xrotation
						End Site
						{
							OFFSET 0.000000 0.000000 0.000000
						}
					}
				}
			}
		}
	}
	JOINT RightUpLeg_virtual
	{
		OFFSET 0.000000 0.000000 0.000000
		CHANNELS 3 Zrotation Yrotation Xrotation
		JOINT RightUpLeg
		{
			OFFSET -10.205400 -3.823500 0.005500
			CHANNELS 3 Zrotation Yrotation Xrotation
			JOINT RightLeg
			{
				OFFSET -0.708756 -12.982134 0.610632
				CHANNELS 3 Zrotation Yrotation Xrotation
				JOINT RightFoot
				{
					OFFSET 0.708754 -10.717769 -1.945823
					CHANNELS 3 Zrotation Yrotation Xrotation
					JOINT RightToeBase
					{
						OFFSET -0.108140 -7.191069 7.372968
						CHANNELS 3 Zrotation Yrotation Xrotation
						End Site
						{
							OFFSET 0.000000 0.000000 0.000000
						}
					}
				}
			}
		}
	}
	JOINT Spine_virtual
	{
		OFFSET 0.000000 0.000000 0.000000
		CHANNELS 3 Zrotation Yrotation Xrotation
		JOINT Spine
		{
			OFFSET 0.000000 6.876099 0.125700
			CHANNELS 3 Zrotation Yrotation Xrotation
			JOINT Spine1
			{
				OFFSET 0.000000 8.022060 0.146608
				CHANNELS 3 Zrotation Yrotation Xrotation
				JOINT Spine2
				{
					OFFSET 0.000000 9.168068 0.167552
					CHANNELS 3 Zrotation Yrotation Xrotation
					JOINT Neck_virtual
					{
						OFFSET 0.000000 0.000000 0.000000
						CHANNELS 3 Zrotation Yrotation Xrotation
						JOINT Neck
						{
							OFFSET 0.000000 10.314075 0.188496
							CHANNELS 3 Zrotation Yrotation Xrotation
							JOINT Head
							{
								OFFSET 0.000000 7.643700 -2.377400
								CHANNELS 3 Zrotation Yrotation Xrotation
								End Site
								{
									OFFSET 0.000000 0.000000 0.000000
								}
							}
						}
					}
					JOINT LeftShoulder_virtual
					{
						OFFSET 0.000000 0.000000 0.000000
						CHANNELS 3 Zrotation Yrotation Xrotation
						JOINT LeftShoulder
						{
							OFFSET 4.392200 8.824978 0.174984
							CHANNELS 3 Zrotation Yrotation Xrotation
							JOINT LeftArm
							{
								OFFSET 8.771219 -2.981674 -0.026999
								CHANNELS 3 Zrotation Yrotation Xrotation
								JOINT LeftForeArm
								{
									OFFSET 8.512804 0.000000 -0.000000
									CHANNELS 3 Zrotation Yrotation Xrotation
									JOINT LeftHand
									{
										OFFSET 18.484802 0.000000 -0.000000
										CHANNELS 3 Zrotation Yrotation Xrotation
										End Site
										{
											OFFSET 0.000000 0.000000 0.000000
										}
									}
								}
							}
						}
					}
					JOINT RightShoulder_virtual
					{
						OFFSET 0.000000 0.000000 0.000000
						CHANNELS 3 Zrotation Yrotation Xrotation
						JOINT RightShoulder
						{
							OFFSET -4.392200 8.824993 0.141379
							CHANNELS 3 Zrotation Yrotation Xrotation
							JOINT RightArm
							{
								OFFSET -8.771282 -2.981682 -0.094208
								CHANNELS 3 Zrotation Yrotation Xrotation
								JOINT RightForeArm
								{
									OFFSET -8.494598 0.000000 0.000000
									CHANNELS 3 Zrotation Yrotation Xrotation
									JOINT RightHand
									{
										OFFSET -18.483803 0.000000 0.000001
										CHANNELS 3 Zrotation Yrotation Xrotation
										End Site
										{
											OFFSET 0.000000 0.000000 0.000000
										}
									}
								}
							}
						}
					}
				}
			}
		}
	}
}
MOTION
Frames: 7
Frame Time: 0.033333
-9.367441 34.992687 89.167519 -179.662225 9.414941 179.629959 -3.049709 -3.386275 11.055031 -12.669769 -2.080362 -30.676446 18.839504 10.618058 21.993513 -6.632645 0.319482 7.295243 0.000000 0.000000 0.000000 3.743050 -2.989927 9.103633 0.322482 15.327363 -30.491351 -6.568140 0.117444 22.675038 0.567513 5.010534 6.781414 0.000000 0.000000 0.000000 1.787008 -0.265554 -0.536842 -0.814310 -0.136345 -7.842996 -0.220661 -2.001324 10.888489 0.023723 -0.094292 0.000256 -0.695357 0.393711 13.550726 0.742136 -2.765995 13.295916 0.000000 0.000000 0.000000 0.659744 1.024425 10.641543 -18.260536 -13.250284 3.421201 -51.353798 15.564924 7.661930 -3.569364 -23.821139 6.181457 0.000000 0.000000 0.000000 -2.752068 2.019193 10.218556 25.922668 3.642119 2.020247 39.036973 -13.929558 5.286611 -5.267533 26.463761 -4.195272 0.000000 0.000000 0.000000 
-9.351739 34.981285 89.190979 -179.557463 9.439421 179.503218 -3.148975 -3.495014 10.852950 -12.734576 -2.185252 -31.041946 18.724241 10.968462 21.722496 -6.862751 0.282296 7.288630 0.000000 0.000000 0.000000 3.788071 -3.114862 9.225474 0.486936 15.305108 -30.490572 -6.543340 -0.257050 22.545664 0.656532 5.104703 7.055384 0.000000 0.000000 0.000000 1.912228 -0.296672 -0.316062 -0.733869 -0.035708 -7.758618 -0.165675 -2.010669 10.875509 -0.037486 -0.071426 -0.136955 -0.583671 0.232443 13.493816 0.729429 -2.679519 13.186324 0.000000 0.000000 0.000000 0.701068 1.012947 10.679276 -18.343639 -13.153620 3.399570 -51.142950 15.635761 7.725092 -3.532811 -23.625764 6.132661 0.000000 0.000000 0.000000 -2.727868 1.991281 10.273624 25.868442 3.715059 1.964279 39.251554 -13.952170 5.241119 -5.237443 26.230131 -4.162361 0.000000 0.000000 0.000000 
-9.327853 34.973385 89.178001 -179.558843 9.294212 179.521714 -3.097248 -3.590446 10.893703 -12.686172 -2.185876 -31.086462 18.804950 11.558369 21.799227 -7.206780 0.333535 7.725704 0.000000 0.000000 0.000000 3.726850 -3.212620 9.194891 0.688892 15.244921 -30.497573 -6.596251 -0.069222 22.666661 0.573078 5.125310 7.016682 0.000000 0.000000 0.000000 1.951387 -0.393124 -0.057550 -0.639473 0.020240 -7.802258 -0.161665 -2.108891 10.641578 -0.023020 -0.113580 -0.055742 -0.556595 0.249763 13.628323 0.648267 -2.704235 13.438510 0.000000 0.000000 0.000000 0.811587 1.010609 10.732321 -18.431305 -12.917485 3.434486 -50.913948 15.801704 8.002695 -3.604858 -23.509404 6.158335 0.000000 0.000000 0.000000 -2.677700 1.998056 10.257784 25.618655 3.835350 1.881627 39.633368 -14.088218 5.109410 -5.254315 25.919699 -4.258161 0.000000 0.000000 0.000000 
-9.305710 34.968052 89.115242 -179.621981 9.009421 179.658796 -3.089579 -3.692380 10.859701 -12.583344 -2.234250 -31.181781 18.883842 12.364087 21.842165 -7.770033 0.306776 8.165680 0.000000 0.000000 0.000000 3.600689 -3.181463 9.144244 0.942906 15.120707 -30.481802 -6.675843 0.297000 22.988458 0.395370 5.106031 6.782975 0.000000 0.000000 0.000000 1.834582 -0.432595 -0.004037 -0.494073 0.175165 -7.880232 -0.114559 -2.178925 10.735387 -0.031159 -0.137257 -0.086368 -0.394978 0.136249 13.521974 0.693016 -2.683734 13.499397 0.000000 0.000000 0.000000 0.855924 0.952209 10.676232 -18.478361 -12.717478 3.428417 -50.616046 15.970673 8.516858 -3.601413 -23.397417 6.068989 0.000000 0.000000 0.000000 -2.592698 1.895329 10.125861 25.181818 3.932828 1.787346 40.337397 -14.550956 4.945520 -5.221815 25.485671 -4.348475 0.000000 0.000000 0.000000 
-9.284883 34.966480 89.039818 -179.690625 8.668842 179.679710 -3.154631 -3.725128 10.881365 -12.546868 -2.175189 -31.263384 18.757706 12.496211 21.792828 -7.965021 0.364704 8.460343 0.000000 0.000000 0.000000 3.496743 -3.119386 9.135843 1.267640 14.700604 -30.416318 -6.694087 0.508558 23.440958 0.139246 4.954455 6.365154 0.000000 0.000000 0.000000 1.698234 -0.408338 0.198699 -0.313952 0.264248 -8.002643 -0.034297 -2.233774 10.681972 -0.035096 -0.086139 -0.072802 -0.335357 0.013340 13.553585 0.753442 -2.753308 13.851906 0.000000 0.000000 0.000000 0.902123 0.868322 10.673890 -18.560600 -12.470106 3.368587 -50.406854 16.045316 9.092532 -3.685654 -23.360096 6.055692 0.000000 0.000000 0.000000 -2.554242 1.864142 10.082082 24.694530 3.872192 1.766865 41.263584 -15.362328 4.698190 -5.292005 25.088910 -4.533060 0.000000 0.000000 0.000000 
-9.261966 34.972389 88.976067 -179.730609 8.388126 179.691349 -3.216099 -3.628390 10.896063 -12.483648 -2.094542 -31.313880 18.514222 12.311853 21.671144 -7.978504 0.366025 8.571571 0.000000 0.000000 0.000000 3.398994 -3.072817 9.069882 1.567812 14.330022 -30.215767 -6.678162 0.744767 23.739630 -0.033793 4.899288 5.925431 0.000000 0.000000 0.000000 1.638360 -0.430688 0.332933 -0.135681 0.661546 -8.172349 -0.030929 -2.349313 10.668325 -0.037249 -0.070597 -0.061302 -0.311001 -0.146303 13.505923 0.960086 -2.857137 14.261465 0.000000 0.000000 0.000000 0.925703 0.686582 10.646808 -18.621724 -12.196425 3.280764 -50.282794 15.967203 9.624018 -3.775556 -23.074307 5.938441 0.000000 0.000000 0.000000 -2.571498 1.622815 10.061736 24.282311 3.827424 1.734001 42.421557 -16.355685 4.515706 -5.318227 24.836535 -4.722821 0.000000 0.000000 0.000000 
-9.255537 34.980850 88.895935 -179.751509 8.072753 179.701239 -3.245339 -3.521710 10.907611 -12.413071 -2.057759 -31.338096 18.235840 12.060274 21.652489 -7.847880 0.260698 8.572576 0.000000 0.000000 0.000000 3.398242 -2.790051 9.087873 1.842875 13.744455 -29.987727 -6.722656 0.986940 24.078532 -0.306668 4.689774 5.503964 0.000000 0.000000 0.000000 1.643057 -0.425839 0.383844 0.030321 0.903468 -8.339395 -0.087459 -2.483305 10.727895 -0.010834 -0.111759 -0.063791 -0.441088 -0.205123 13.562315 1.244113 -3.052617 14.936608 0.000000 0.000000 0.000000 0.848166 0.492111 10.623883 -18.641992 -11.958017 3.138150 -50.162723 15.713144 10.001560 -3.841712 -22.625656 5.774520 0.000000 0.000000 0.000000 -2.654662 1.492260 10.045802 24.030047 3.790941 1.694556 43.559689 -17.345965 4.311081 -5.380248 24.838811 -4.926765 0.000000 0.000000 0.000000 
